<svg width="305" height="330" viewBox="0 0 305 330" fill="none" xmlns="http://www.w3.org/2000/svg">
<path d="M220.5 320L273 127.5L264 107.5L236 120L220.5 94.5L193.5 107.5L177 80.5L149.5 94.5L135.5 67.5L106.5 80.5L92 54.5L64.5 67.5L7 255.5L75.5 273.5C93.5 230 156 242.75 149.5 297L220.5 320Z" fill="#DE3737"/>
<path d="M87.5722 231.537C75.8791 230.566 67.6398 226.671 62.8543 219.852C58.0799 212.899 56.3325 201.716 57.6123 186.303L61.9151 134.481C62.1688 131.425 63.5189 128.861 65.9654 126.79C68.4118 124.719 71.1631 123.81 74.2193 124.064L77.4083 124.328C80.4644 124.582 83.0282 125.932 85.0995 128.379C87.1709 130.825 88.0796 133.576 87.8259 136.633L83.7549 185.664C82.9826 194.965 83.7098 201.514 85.9366 205.312C88.1633 209.109 92.2664 211.256 98.2459 211.752C103.694 212.205 108.936 210.299 113.973 206.034C119.143 201.781 121.948 196.996 122.389 191.681L126.692 139.86C126.946 136.803 128.296 134.24 130.742 132.168C133.189 130.097 135.94 129.188 138.996 129.442L142.983 129.773C146.039 130.027 148.536 131.371 150.475 133.807C152.546 136.253 153.455 139.004 153.201 142.061L146.482 222.982C146.228 226.038 144.878 228.602 142.432 230.673C140.118 232.756 137.433 233.67 134.377 233.416L131.786 233.201C128.597 232.936 125.961 231.647 123.879 229.334C121.941 226.898 121.037 224.08 121.169 220.88L121.086 219.469C121.097 219.336 121.036 219.264 120.903 219.253C120.77 219.242 120.632 219.297 120.488 219.419C110.636 228.502 99.6639 232.541 87.5722 231.537ZM184.369 237.567C181.313 237.313 178.749 235.963 176.678 233.517C174.607 231.07 173.698 228.319 173.952 225.263L180.67 144.341C180.924 141.285 182.274 138.721 184.721 136.65C187.167 134.579 189.919 133.67 192.975 133.924L196.961 134.255C200.017 134.508 202.581 135.859 204.652 138.305C206.724 140.751 207.632 143.503 207.379 146.559L206.684 154.93C206.672 155.063 206.733 155.135 206.866 155.146C207.132 155.168 207.27 155.113 207.281 154.98C211.576 149.985 216.984 146.085 223.505 143.282C230.037 140.346 237.057 138.788 244.564 138.609C247.376 138.574 249.691 139.703 251.508 141.995C253.335 144.153 254.133 146.628 253.902 149.418C253.67 152.209 252.475 154.518 250.316 156.345C248.157 158.173 245.672 159.104 242.859 159.138C219.186 159.045 206.433 170.028 204.602 192.085L201.656 227.563C201.403 230.619 200.052 233.183 197.606 235.254C195.16 237.326 192.408 238.235 189.352 237.981L184.369 237.567Z" fill="white"/>
</svg>
